<svg width="1000" height="340" viewBox="0 0 1000 340" fill="none" xmlns="http://www.w3.org/2000/svg" role="img" aria-label="SoyRage — cartoon hero — Senior Full-Stack Developer and Infrastructure Engineer">
  <defs>
    <clipPath id="panel"><rect width="1000" height="340" rx="18"/></clipPath>
    <pattern id="halftone" width="16" height="16" patternUnits="userSpaceOnUse">
      <circle cx="3" cy="3" r="1.7" fill="#FFFFFF" fill-opacity="0.05"/>
    </pattern>
    <radialGradient id="glowTeal" cx="50%" cy="50%" r="50%">
      <stop offset="0" stop-color="#0FB4C4" stop-opacity="0.30"/><stop offset="1" stop-color="#0FB4C4" stop-opacity="0"/>
    </radialGradient>
    <radialGradient id="glowCoral" cx="50%" cy="50%" r="50%">
      <stop offset="0" stop-color="#F2788C" stop-opacity="0.26"/><stop offset="1" stop-color="#F2788C" stop-opacity="0"/>
    </radialGradient>
  </defs>

  <style>
    .disp { font-family:'Fredoka','Baloo 2','Comic Sans MS','Trebuchet MS',Verdana,sans-serif; }
    .meta { font-family:'SF Mono','Cascadia Code','Fira Code',Consolas,monospace; }
  </style>

  <g clip-path="url(#panel)">
    <rect width="1000" height="340" fill="#071A20"/>
    <ellipse cx="180" cy="60" rx="300" ry="180" fill="url(#glowTeal)"/>
    <ellipse cx="840" cy="290" rx="300" ry="180" fill="url(#glowCoral)"/>
    <rect width="1000" height="340" fill="url(#halftone)"/>

    <!-- comic speed lines -->
    <g stroke="#35E0F0" stroke-opacity="0.14" stroke-linecap="round">
      <line x1="930" y1="18" x2="984" y2="-8" stroke-width="6"/>
      <line x1="900" y1="40" x2="990" y2="-2" stroke-width="4"/>
      <line x1="946" y1="60" x2="1010" y2="30" stroke-width="3"/>
      <line x1="16" y1="322" x2="70" y2="348" stroke-width="6"/>
      <line x1="10" y1="296" x2="100" y2="342" stroke-width="4"/>
    </g>

    <!-- caption box (comic style) -->
    <g>
      <rect x="34" y="26" width="392" height="32" rx="8" fill="#FFF7EA" stroke="#12232A" stroke-width="3"/>
      <text class="meta" x="50" y="47" font-size="12" font-weight="700" letter-spacing="1.6" fill="#12232A">FOUNDER — SOYRAGE AGENCY <tspan fill="#8C2F44">✕</tspan> PLENIXNETWORK</text>
    </g>

    <!-- ================= WORDMARK BURST ================= -->
    <g transform="translate(408 150)">
      <g>
        <animateTransform attributeName="transform" type="rotate" values="-2;2;-2" dur="5s" repeatCount="indefinite"/>
        <polygon points="0.0,-96.0 17.1,-63.8 48.0,-83.1 46.7,-46.7 83.1,-48.0 63.8,-17.1 96.0,0.0 63.8,17.1 83.1,48.0 46.7,46.7 48.0,83.1 17.1,63.8 0.0,96.0 -17.1,63.8 -48.0,83.1 -46.7,46.7 -83.1,48.0 -63.8,17.1 -96.0,0.0 -63.8,-17.1 -83.1,-48.0 -46.7,-46.7 -48.0,-83.1 -17.1,-63.8" fill="#0B5E6E" stroke="#12232A" stroke-width="4" transform="scale(2.05 1.02) rotate(12)"/>
        <polygon points="0.0,-96.0 17.1,-63.8 48.0,-83.1 46.7,-46.7 83.1,-48.0 63.8,-17.1 96.0,0.0 63.8,17.1 83.1,48.0 46.7,46.7 48.0,83.1 17.1,63.8 0.0,96.0 -17.1,63.8 -48.0,83.1 -46.7,46.7 -83.1,48.0 -63.8,17.1 -96.0,0.0 -63.8,-17.1 -83.1,-48.0 -46.7,-46.7 -48.0,-83.1 -17.1,-63.8" fill="#F2788C" stroke="#12232A" stroke-width="4" transform="scale(1.85 0.92)"/>
      </g>
      <g class="disp" transform="rotate(-2)">
        <text x="7" y="27" text-anchor="middle" font-size="78" font-weight="900" letter-spacing="3" fill="#8C2F44">SOYRAGE</text>
        <text x="0" y="20" text-anchor="middle" font-size="78" font-weight="900" letter-spacing="3" fill="#FFF4E4" stroke="#12232A" stroke-width="9" paint-order="stroke" stroke-linejoin="round">SOYRAGE</text>
      </g>
    </g>

    <!-- ribbon -->
    <g class="disp">
      <polygon points="128,238 152,252 128,266" fill="#0B5E6E" stroke="#12232A" stroke-width="3"/>
      <polygon points="688,238 664,252 688,266" fill="#0B5E6E" stroke="#12232A" stroke-width="3"/>
      <rect x="146" y="232" width="524" height="40" rx="10" fill="#0FB4C4" stroke="#12232A" stroke-width="3.5"/>
      <text x="408" y="258" text-anchor="middle" font-size="15.5" font-weight="800" letter-spacing="1.6" fill="#06272C">SENIOR FULL-STACK DEVELOPER  ✕  INFRASTRUCTURE ENGINEER</text>
    </g>

    <!-- ================= CLOUD + SERVER (infra pun) ================= -->
    <g>
      <animateTransform attributeName="transform" type="translate" values="0 0; 10 0; 0 0" dur="7s" repeatCount="indefinite"/>
      <path d="M86 128 a22 22 0 0 1 22-22 a26 26 0 0 1 50-6 a20 20 0 0 1 14 34 q2 12 -12 14 H98 q-14 -2 -12 -20 Z" fill="#FFF7EA" stroke="#12232A" stroke-width="4" stroke-linejoin="round"/>
      <circle cx="118" cy="118" r="3.4" fill="#12232A"/>
      <circle cx="142" cy="118" r="3.4" fill="#12232A"/>
      <path d="M122 130 q8 7 16 0" stroke="#12232A" stroke-width="3.6" stroke-linecap="round" fill="none"/>
    </g>
    <line x1="129" y1="152" x2="129" y2="192" stroke="#FFF4E4" stroke-opacity="0.6" stroke-width="3" stroke-dasharray="3 7" stroke-linecap="round">
      <animate attributeName="stroke-dashoffset" values="0;-20" dur="1.2s" repeatCount="indefinite"/>
    </line>
    <g>
      <rect x="98" y="192" width="62" height="44" rx="9" fill="#0B2A31" stroke="#12232A" stroke-width="3.5"/>
      <line x1="106" y1="207" x2="134" y2="207" stroke="#9FB8BE" stroke-width="3" stroke-linecap="round"/>
      <line x1="106" y1="221" x2="134" y2="221" stroke="#9FB8BE" stroke-width="3" stroke-linecap="round"/>
      <circle cx="149" cy="207" r="3.4" fill="#35E0F0"><animate attributeName="opacity" values="1;.15;1" dur="1s" repeatCount="indefinite"/></circle>
      <circle cx="149" cy="221" r="3.4" fill="#F2788C"><animate attributeName="opacity" values=".15;1;.15" dur="1s" repeatCount="indefinite"/></circle>
    </g>

    <!-- rocket -->
    <g transform="translate(268 52)">
      <g>
      <animateTransform attributeName="transform" type="translate" values="0 0; 8 -8; 0 0" dur="3.6s" repeatCount="indefinite"/>
      <g transform="rotate(24)">
        <path d="M0 -22 q10 8 10 24 q0 10 -10 16 q-10 -6 -10 -16 q0 -16 10 -24 Z" fill="#FFF7EA" stroke="#12232A" stroke-width="3.5" stroke-linejoin="round"/>
        <circle cx="0" cy="-2" r="5" fill="#35E0F0" stroke="#12232A" stroke-width="3"/>
        <path d="M-10 8 l-8 12 l10 -2 Z" fill="#F2788C" stroke="#12232A" stroke-width="3" stroke-linejoin="round"/>
        <path d="M10 8 l8 12 l-10 -2 Z" fill="#F2788C" stroke="#12232A" stroke-width="3" stroke-linejoin="round"/>
        <path d="M0 20 q5 8 0 16 q-5 -8 0 -16 Z" fill="#FFB454" stroke="#12232A" stroke-width="2.5">
          <animate attributeName="opacity" values="1;.45;1" dur=".5s" repeatCount="indefinite"/>
        </path>
      </g>
      </g>
    </g>

    <!-- gear -->
    <g>
      <animateTransform attributeName="transform" type="rotate" values="0 62 296; 360 62 296" dur="10s" repeatCount="indefinite"/>
      <rect x="75.5" y="292.5" width="7" height="7" rx="2" transform="rotate(0 79.0 296.0)" fill="#0FB4C4" stroke="#12232A" stroke-width="3"/><rect x="70.5" y="304.5" width="7" height="7" rx="2" transform="rotate(45 74.0 308.0)" fill="#0FB4C4" stroke="#12232A" stroke-width="3"/><rect x="58.5" y="309.5" width="7" height="7" rx="2" transform="rotate(90 62.0 313.0)" fill="#0FB4C4" stroke="#12232A" stroke-width="3"/><rect x="46.5" y="304.5" width="7" height="7" rx="2" transform="rotate(135 50.0 308.0)" fill="#0FB4C4" stroke="#12232A" stroke-width="3"/><rect x="41.5" y="292.5" width="7" height="7" rx="2" transform="rotate(180 45.0 296.0)" fill="#0FB4C4" stroke="#12232A" stroke-width="3"/><rect x="46.5" y="280.5" width="7" height="7" rx="2" transform="rotate(225 50.0 284.0)" fill="#0FB4C4" stroke="#12232A" stroke-width="3"/><rect x="58.5" y="275.5" width="7" height="7" rx="2" transform="rotate(270 62.0 279.0)" fill="#0FB4C4" stroke="#12232A" stroke-width="3"/><rect x="70.5" y="280.5" width="7" height="7" rx="2" transform="rotate(315 74.0 284.0)" fill="#0FB4C4" stroke="#12232A" stroke-width="3"/><circle cx="62" cy="296" r="15" fill="#0FB4C4" stroke="#12232A" stroke-width="3.5"/><circle cx="62" cy="296" r="6" fill="#071A20" stroke="#12232A" stroke-width="3"/>
    </g>

    <!-- lightning bolts -->
    <polygon points="332,236 344,236 336,252 346,252 326,276 333,256 324,256" fill="#FFB454" stroke="#12232A" stroke-width="2.5" stroke-linejoin="round" opacity="0.95"/>
    <polygon points="700,84 712,84 704,100 714,100 694,124 701,104 692,104" fill="#F2788C" stroke="#12232A" stroke-width="2.5" stroke-linejoin="round" opacity="0.95"/>

    <!-- sparkles -->
    <g transform="translate(318 52)"><polygon points="0.0,-9.0 2.3,-2.3 9.0,0.0 2.3,2.3 0.0,9.0 -2.3,2.3 -9.0,0.0 -2.3,-2.3" fill="#FFF4E4" stroke="#12232A" stroke-width="2.5">
      <animate attributeName="opacity" values="1;.25;1" dur="2.4s" begin="0.0s" repeatCount="indefinite"/>
      <animateTransform attributeName="transform" type="scale" values="1;1.25;1" dur="2.4s" begin="0.0s" repeatCount="indefinite" additive="sum"/>
    </polygon></g>
    <g transform="translate(576 54)"><polygon points="0.0,-7.0 1.8,-1.8 7.0,0.0 1.8,1.8 0.0,7.0 -1.8,1.8 -7.0,0.0 -1.8,-1.8" fill="#35E0F0" stroke="#12232A" stroke-width="2.5">
      <animate attributeName="opacity" values="1;.25;1" dur="2.4s" begin="0.7s" repeatCount="indefinite"/>
      <animateTransform attributeName="transform" type="scale" values="1;1.25;1" dur="2.4s" begin="0.7s" repeatCount="indefinite" additive="sum"/>
    </polygon></g>
    <g transform="translate(698 208)"><polygon points="0.0,-8.0 2.0,-2.0 8.0,0.0 2.0,2.0 0.0,8.0 -2.0,2.0 -8.0,0.0 -2.0,-2.0" fill="#FFF4E4" stroke="#12232A" stroke-width="2.5">
      <animate attributeName="opacity" values="1;.25;1" dur="2.4s" begin="1.3s" repeatCount="indefinite"/>
      <animateTransform attributeName="transform" type="scale" values="1;1.25;1" dur="2.4s" begin="1.3s" repeatCount="indefinite" additive="sum"/>
    </polygon></g>
    <g transform="translate(214 286)"><polygon points="0.0,-6.0 1.5,-1.5 6.0,0.0 1.5,1.5 0.0,6.0 -1.5,1.5 -6.0,0.0 -1.5,-1.5" fill="#35E0F0" stroke="#12232A" stroke-width="2.5">
      <animate attributeName="opacity" values="1;.25;1" dur="2.4s" begin="1.9s" repeatCount="indefinite"/>
      <animateTransform attributeName="transform" type="scale" values="1;1.25;1" dur="2.4s" begin="1.9s" repeatCount="indefinite" additive="sum"/>
    </polygon></g>

    <!-- ================= CHIBI DEV MASCOT ================= -->
    <ellipse cx="852" cy="266" rx="46" ry="8" fill="#000000" opacity="0.28">
      <animate attributeName="rx" values="46;38;46" dur="3.2s" repeatCount="indefinite"/>
    </ellipse>
    <g>
      <animateTransform attributeName="transform" type="translate" values="0 0; 0 -9; 0 0" dur="3.2s" repeatCount="indefinite"/>

      <!-- waving arm (behind body) -->
      <g>
        <animateTransform attributeName="transform" type="rotate" values="10 878 176; -8 878 176; 10 878 176" dur="1.8s" repeatCount="indefinite"/>
        <path d="M878 176 q24 -10 30 -34" stroke="#12232A" stroke-width="15" stroke-linecap="round" fill="none"/>
        <path d="M878 176 q24 -10 30 -34" stroke="#F3A98F" stroke-width="9" stroke-linecap="round" fill="none"/>
        <circle cx="909" cy="140" r="8" fill="#F3A98F" stroke="#12232A" stroke-width="3.5"/>
      </g>

      <!-- body hoodie -->
      <rect x="826" y="166" width="52" height="52" rx="18" fill="#0FB4C4" stroke="#12232A" stroke-width="4"/>
      <path d="M832 176 q20 12 40 0" stroke="#0B5E6E" stroke-width="4" fill="none" stroke-linecap="round"/>

      <!-- legs -->
      <path d="M840 214 v14" stroke="#12232A" stroke-width="13" stroke-linecap="round"/>
      <path d="M864 214 v14" stroke="#12232A" stroke-width="13" stroke-linecap="round"/>
      <path d="M840 214 v12" stroke="#0B5E6E" stroke-width="8" stroke-linecap="round"/>
      <path d="M864 214 v12" stroke="#0B5E6E" stroke-width="8" stroke-linecap="round"/>
      <ellipse cx="840" cy="232" rx="9" ry="6" fill="#12232A"/>
      <ellipse cx="864" cy="232" rx="9" ry="6" fill="#12232A"/>

      <!-- head -->
      <circle cx="852" cy="122" r="41" fill="#F3A98F" stroke="#12232A" stroke-width="4"/>
      <!-- hair -->
      <path d="M814 116 q-4 -34 24 -44 l6 16 l10 -22 l10 22 l6 -16 q28 10 24 44 q-10 -18 -40 -18 q-30 0 -40 18 Z" fill="#D65A6E" stroke="#12232A" stroke-width="4" stroke-linejoin="round"/>
      <!-- headphones -->
      <path d="M814 104 q38 -40 76 0" stroke="#12232A" stroke-width="8" fill="none" stroke-linecap="round"/>
      <rect x="804" y="100" width="16" height="26" rx="7" fill="#F2788C" stroke="#12232A" stroke-width="3.5"/>
      <rect x="884" y="100" width="16" height="26" rx="7" fill="#F2788C" stroke="#12232A" stroke-width="3.5"/>
      <!-- face -->
      <path d="M834 122 q6 -8 12 0" stroke="#12232A" stroke-width="4" stroke-linecap="round" fill="none"/>
      <path d="M858 122 q6 -8 12 0" stroke="#12232A" stroke-width="4" stroke-linecap="round" fill="none"/>
      <circle cx="832" cy="134" r="4.6" fill="#F2788C" opacity="0.75"/>
      <circle cx="872" cy="134" r="4.6" fill="#F2788C" opacity="0.75"/>
      <path d="M844 136 q8 9 16 0" stroke="#12232A" stroke-width="4" stroke-linecap="round" fill="none"/>

      <!-- laptop arm -->
      <path d="M830 182 q-16 8 -22 22" stroke="#12232A" stroke-width="15" stroke-linecap="round" fill="none"/>
      <path d="M830 182 q-16 8 -22 22" stroke="#F3A98F" stroke-width="9" stroke-linecap="round" fill="none"/>
      <!-- laptop -->
      <rect x="770" y="172" width="48" height="36" rx="5" fill="#0B2A31" stroke="#12232A" stroke-width="3.5"/>
      <text class="meta" x="794" y="196" text-anchor="middle" font-size="15" font-weight="800" fill="#35E0F0">&lt;/&gt;</text>
      <rect x="762" y="208" width="60" height="9" rx="4" fill="#0B2A31" stroke="#12232A" stroke-width="3.5"/>
    </g>

    <!-- bottom meta -->
    <polygon points="46.0,306.0 48.1,311.1 53.6,311.5 49.4,315.1 50.7,320.5 46.0,317.6 41.3,320.5 42.6,315.1 38.4,311.5 43.9,311.1" fill="#F2788C" stroke="#12232A" stroke-width="2.5"/>
    <text class="meta" x="62" y="318" font-size="11.5" letter-spacing="2.2" fill="#FFF4E4" fill-opacity="0.9">AVAILABLE FOR AMBITIOUS PROJECTS</text>
    <text class="meta" x="956" y="318" text-anchor="end" font-size="11.5" letter-spacing="2.2" fill="#9FB8BE">VALENCIA · SPAIN <tspan fill="#35E0F0">—</tspan> SOYRAGE.ES</text>
  </g>

  <!-- comic panel frame -->
  <rect x="4" y="4" width="992" height="332" rx="16" stroke="#FFF4E4" stroke-opacity="0.95" stroke-width="3"/>
</svg>
